<svg width="20" height="20" viewBox="0 0 20 20" fill="none" xmlns="http://www.w3.org/2000/svg">
<path d="M5.64972 12.6C5.44972 12.6 5.19972 12.5 5.04972 12.3C4.79972 12 4.84972 11.5 5.14972 11.25L8.24972 8.75004C8.49972 8.55004 8.84972 8.55003 9.09972 8.70003L11.6497 10.25L13.7497 7.65004C13.9997 7.35004 14.4997 7.25004 14.7997 7.55004C15.0997 7.80004 15.1997 8.30004 14.8997 8.60004L12.3997 11.7C12.1497 12 11.7497 12.05 11.4497 11.85L8.79972 10.25L6.09972 12.4C5.99972 12.55 5.79972 12.6 5.64972 12.6Z" fill="#8E8E8E"/>
<path d="M16 17H4C2.35 17 1 15.65 1 14V6C1 4.35 2.35 3 4 3H16C17.65 3 19 4.35 19 6V14C19 15.65 17.65 17 16 17ZM4 4.5C3.15 4.5 2.5 5.2 2.5 6V14C2.5 14.85 3.2 15.5 4 15.5H16C16.85 15.5 17.5 14.8 17.5 14V6C17.5 5.15 16.8 4.5 16 4.5H4Z" fill="#8E8E8E"/>
</svg>
