<svg width="20" height="20" viewBox="0 0 20 20" fill="none" xmlns="http://www.w3.org/2000/svg">
<path d="M16 17H4C2.35 17 1 15.65 1 14V6C1 4.35 2.35 3 4 3H16C17.65 3 19 4.35 19 6V14C19 15.65 17.65 17 16 17ZM4 4.5C3.15 4.5 2.5 5.2 2.5 6V14C2.5 14.85 3.2 15.5 4 15.5H16C16.85 15.5 17.5 14.8 17.5 14V6C17.5 5.15 16.8 4.5 16 4.5H4Z" fill="#CBD4DB"/>
<path d="M5.64996 12.6C5.44996 12.6 5.19996 12.5 5.04996 12.3C4.79996 12 4.84996 11.5 5.14996 11.25L8.24996 8.75004C8.49996 8.55004 8.84996 8.55003 9.09996 8.70003L11.65 10.25L13.75 7.65004C14 7.35004 14.5 7.25004 14.8 7.55004C15.1 7.80004 15.2 8.30004 14.9 8.60004L12.4 11.7C12.15 12 11.75 12.05 11.45 11.85L8.79996 10.25L6.09996 12.4C5.99996 12.55 5.79996 12.6 5.64996 12.6Z" fill="#CBD4DB"/>
</svg>
