<svg width="17" height="15" viewBox="0 0 17 15" fill="none" xmlns="http://www.w3.org/2000/svg">
<path d="M11.475 0C9.3625 0 7.65 1.67917 7.65 3.75C7.65 5.82083 9.3625 7.5 11.475 7.5C13.5875 7.5 15.3 5.82083 15.3 3.75C15.3 1.67917 13.5875 0 11.475 0ZM5.1 0.833333C3.22227 0.833333 1.7 2.32583 1.7 4.16667C1.7 6.0075 3.22227 7.5 5.1 7.5C5.80499 7.5 6.47275 7.28917 7.03902 6.90084C7.42382 6.6375 7.52046 6.10667 7.25152 5.72917C6.98258 5.35167 6.46757 5.28334 6.08277 5.54667C5.79981 5.74084 5.45377 5.83333 5.1 5.83333C4.16109 5.83333 3.4 5.0875 3.4 4.16667C3.4 3.24583 4.16109 2.5 5.1 2.5C5.37727 2.5 5.63091 2.56 5.87027 2.6825C6.28677 2.89499 6.82244 2.75168 7.03902 2.34334C7.25569 1.93584 7.08364 1.40999 6.66723 1.19832C6.18689 0.953324 5.65199 0.833333 5.1 0.833333ZM11.475 1.66667C12.6486 1.66667 13.6 2.59917 13.6 3.75C13.6 4.90083 12.6486 5.83333 11.475 5.83333C10.3014 5.83333 9.35 4.90083 9.35 3.75C9.35 2.59917 10.3014 1.66667 11.475 1.66667ZM2.60313 8.62C1.04414 9.25083 0 10.7967 0 12.5V14.1667C0 14.6267 0.380545 15 0.85 15H4.25C4.71946 15 5.1 14.6267 5.1 14.1667C5.1 13.7067 4.71946 13.3333 4.25 13.3333H1.7V12.5C1.7 11.5633 2.26669 10.7033 2.91805 10.325C3.53064 10.5783 4.17869 10.77 4.75499 10.8175C5.22283 10.8567 5.64468 10.5108 5.68438 10.0517C5.72407 9.59334 5.38603 9.20502 4.91827 9.16585C4.54512 9.13502 4.13729 9.02499 3.66563 8.82833C3.55173 8.78083 3.48559 8.74333 3.26723 8.64583C3.05311 8.55 2.82055 8.53166 2.60313 8.62ZM8.55313 8.62C6.99414 9.25083 5.95 10.7967 5.95 12.5V14.1667C5.95 14.6267 6.33055 15 6.8 15H16.15C16.6195 15 17 14.6267 17 14.1667V12.5C17 10.8367 15.9501 9.32834 14.3969 8.67167C14.1783 8.57917 13.9235 8.57667 13.7063 8.67167C12.9542 9.0025 12.2215 9.16667 11.475 9.16667C10.7311 9.16667 9.99583 8.99333 9.21723 8.64583C9.00311 8.55 8.77056 8.53166 8.55313 8.62ZM8.87995 10.325C9.68303 10.6233 10.6513 10.8333 11.475 10.8333C12.2923 10.8333 13.2205 10.6375 14.0073 10.3525C14.7745 10.7808 15.3 11.5825 15.3 12.5V13.3333H7.65V12.5C7.65 11.5292 8.20751 10.7108 8.87995 10.325Z" fill="white"/>
</svg>
