<svg width="18" height="18" viewBox="0 0 18 18" fill="none" xmlns="http://www.w3.org/2000/svg">
<path d="M3 0C1.343 0 0 1.3431 0 3V5V14C0 16.209 1.791 18 4 18H14C16.209 18 18 16.209 18 14V5C18 4.4477 17.552 4 17 4H12C11.245 4 11.002 3.7551 10.406 2.5625C9.50301 0.7551 8.745 0 7 0H3ZM3 2H7C7.755 2 7.99799 2.2449 8.59399 3.4375C8.72399 3.6986 8.768 3.7727 8.896 3.9907L4.96899 4C4.41599 4 3.96899 4.4477 3.96899 5C3.96899 5.5523 4.41599 6 4.96899 6H12H16V14C16 15.105 15.105 16 14 16H4C2.895 16 2 15.105 2 14V5V3C2 2.4477 2.448 2 3 2Z" fill="#919295"/>
</svg>
