<svg width="20" height="16" viewBox="0 0 20 16" fill="none" xmlns="http://www.w3.org/2000/svg">
<path d="M3 0C1.3431 0 0 1.3431 0 3V12.75C0 14.5449 1.4551 16 3.25 16H16.75C18.5449 16 20 14.5449 20 12.75V5C20 4.4477 19.5523 4 19 4H18V1C18 0.4477 17.5523 0 17 0H3ZM3 2H16V4H3C2.4477 4 2 3.5523 2 3C2 2.4477 2.4477 2 3 2ZM3 6H18V12.75C18 13.4404 17.4403 14 16.75 14H3.25C2.5596 14 2 13.4404 2 12.75L2.0058 5.8241C2.0058 5.8241 2.3638 6.0031 3 6ZM15 9C14.4477 9 14 9.4477 14 10C14 10.5523 14.4477 11 15 11C15.5523 11 16 10.5523 16 10C16 9.4477 15.5523 9 15 9Z" fill="#919295"/>
</svg>
