<svg width="73" height="38" viewBox="0 0 73 38" fill="none" xmlns="http://www.w3.org/2000/svg">
<path d="M15.6979 8.92746L15.8132 8.22866C16.0046 7.29716 16.1971 7.14211 16.8881 7.14211H18.4999L19.7666 0H17.5021C10.7852 0 9.17331 0.931496 8.0219 8.92746H5.60401L4.37558 15.797H6.83221L4.37558 29.7706C4.18423 30.7021 3.99169 30.8574 3.30094 30.8574H1.26766L0 38H3.76136C10.5933 38 10.7852 36.4084 12.2822 28.0632L14.4705 15.7977H16.9651L18.1933 8.92819L15.6979 8.92746Z" fill="white"/>
<path d="M48.9365 8.92746H40.9139C41.2878 11.2943 41.2751 13.7072 40.8761 16.0698C40.2229 19.7179 39.3785 21.6203 38.1123 21.6203C37.3831 21.6203 36.8447 21.1929 37.1527 19.6407L39.2257 8.92746H31.3954L29.1691 20.1066C28.939 21.2319 28.4016 21.8141 27.5958 21.8141C26.79 21.8141 26.2523 21.1542 26.5209 19.8345L27.442 15.1381C28.1712 11.4116 27.6723 8.92746 22.5292 8.92746H19.0371L17.8467 15.72H18.5758C19.305 15.72 19.4973 16.0698 19.3435 16.7681L18.5365 20.9605C17.7305 25.4629 19.8413 28.7233 24.9078 28.7233C27.8259 28.7233 29.8206 27.2872 31.1266 24.9982C31.9328 27.3658 34.1974 28.7233 38.0738 28.7233C43.8314 28.7233 47.4775 23.8715 48.6674 17.3116C49.3192 13.5854 49.2426 10.907 48.9365 8.92746Z" fill="white"/>
<path d="M69.2389 20.4946L73 0H65.324L63.2512 11.0236C62.3686 9.50992 60.7948 8.53948 58.4537 8.53948C54.1547 8.53948 50.202 11.7998 49.1649 17.6996C48.0907 23.716 51.6603 28.8009 57.0715 28.7233C59.3748 28.6843 60.9481 27.7528 62.0613 26.2002C62.6375 27.5591 63.9802 28.3353 66.5139 28.3353H69.5843L70.7737 21.5427H70.0447C69.3147 21.5427 69.0853 21.1929 69.2389 20.4946ZM62.1393 18.9419C61.8697 20.5335 60.6803 21.5035 59.2595 21.5035C57.5709 21.5035 56.4578 19.9898 56.7646 18.2816C56.861 17.5726 57.2114 16.9241 57.7493 16.4591C58.2872 15.9941 58.9751 15.7448 59.6826 15.7588C61.3708 15.759 62.4454 17.2338 62.1393 18.9419Z" fill="white"/>
</svg>
