<svg width="20" height="20" viewBox="0 0 20 20" fill="none" xmlns="http://www.w3.org/2000/svg">
<path d="M4.5 17.25C4.5 17.65 4.15 18 3.75 18C3.35 18 3 17.65 3 17.25V3.75C3 3.35 3.35 3 3.75 3C4.15 3 4.5 3.35 4.5 3.75V17.25ZM8.5 9.75C8.5 9.35 8.15 9 7.75 9C7.35 9 7 9.35 7 9.75V17.25C7 17.65 7.35 18 7.75 18C8.15 18 8.5 17.65 8.5 17.25V9.75ZM12.5 5.75C12.5 5.35 12.15 5 11.75 5C11.35 5 11 5.35 11 5.75V17.25C11 17.65 11.35 18 11.75 18C12.15 18 12.5 17.65 12.5 17.25V5.75ZM16.5 13.25C16.5 12.85 16.15 12.5 15.75 12.5C15.35 12.5 15 12.85 15 13.25V17.25C15 17.65 15.35 18 15.75 18C16.15 18 16.5 17.65 16.5 17.25V13.25Z" fill="#CBD4DB"/>
</svg>
