<svg width="16" height="16" viewBox="0 0 16 16" fill="none" xmlns="http://www.w3.org/2000/svg">
<path fill-rule="evenodd" clip-rule="evenodd" d="M13.6001 7.2001C13.1577 7.2001 12.8001 6.8417 12.8001 6.4001C12.8001 5.9593 12.4417 5.6001 12.0001 5.6001H4.33125L5.36565 6.6345C5.67845 6.9473 5.67845 7.4529 5.36565 7.7657C5.05285 8.0785 4.54725 8.0785 4.23445 7.7657L1.83445 5.3657C1.52165 5.0529 1.52165 4.5473 1.83445 4.2345L4.23445 1.8345C4.39045 1.6785 4.59525 1.6001 4.80005 1.6001C5.00485 1.6001 5.20965 1.6785 5.36565 1.8345C5.67845 2.1473 5.67845 2.6529 5.36565 2.9657L4.33125 4.0001H12.0001C13.3233 4.0001 14.4001 5.0769 14.4001 6.4001C14.4001 6.8417 14.0425 7.2001 13.6001 7.2001ZM2.40005 8.8001C2.84245 8.8001 3.20005 9.1585 3.20005 9.6001C3.20005 10.0409 3.55845 10.4001 4.00005 10.4001H11.6689L10.6345 9.3657C10.3217 9.0529 10.3217 8.5473 10.6345 8.2345C10.7905 8.0785 10.9953 8.0001 11.2001 8.0001C11.4049 8.0001 11.6097 8.0785 11.7657 8.2345L14.1657 10.6345C14.4785 10.9473 14.4785 11.4529 14.1657 11.7657L11.7657 14.1657C11.4529 14.4785 10.9473 14.4785 10.6345 14.1657C10.3217 13.8529 10.3217 13.3473 10.6345 13.0345L11.6689 12.0001H4.00005C2.67685 12.0001 1.60005 10.9233 1.60005 9.6001C1.60005 9.1585 1.95765 8.8001 2.40005 8.8001Z" fill="#5C5F62"/>
</svg>
